<svg width="23" height="24" fill="none" xmlns="http://www.w3.org/2000/svg"><path opacity=".3" d="M11.5 21.82C5.15 21.82 0 16.93 0 10.9v2.18C0 19.11 5.15 24 11.5 24S23 19.11 23 13.1v-2.2c0 6.03-5.15 10.92-11.5 10.92z" fill="#ABABAB"/><path d="M11.5 21.82c6.35 0 11.5-4.89 11.5-10.91C23 4.88 17.85 0 11.5 0S0 4.88 0 10.9c0 6.03 5.15 10.92 11.5 10.92z" fill="#fff"/><path d="M11.5 13.1c1.27 0 2.3-.99 2.3-2.2 0-1.2-1.03-2.17-2.3-2.17-1.27 0-2.3.97-2.3 2.18 0 1.2 1.03 2.18 2.3 2.18z" fill="#ABABAB"/></svg>