<svg viewBox="0 0 138 70" xmlns="http://www.w3.org/2000/svg"><path d="M138 0H0l59.5 65.7a12.6 12.6 0 0019 0z" fill="#81b3d3"/><path d="M36.7.5l32.1 37.8 32-37.6z" fill="#23a9e1"/><path d="M61.1 14.7h17.3c-1.3-.8-4.3-4.6-6-3.2-.2.2-4.9-5.7-8-2.9-2.7 2.5-4-.3-7 1.7-3.6 2.3 2 3.6 3.7 4.4m26.7-3.5H78c3.9-4.4 5.6-4 9.8 0" fill="#fff"/><path d="M97.6 3.6V1.2h2.1zM48.4 13s2.4-2.4 6-4.9c3.4-2.2 8.6-5 14.4-4.9 5.8 0 11.1 2.7 14.5 5a39 39 0 016.2 5L87 16c-4.5.6-7.7 4-12.1 3.2-2.2-.4-2.3-1.6-3-2.9-.4-1-1.2-.8-2.2-1.2-1-.4-1.5-1.2-3.3-.7-1.7.4-1.9 3-3.9 2.8-1.1-.1-1.2-1.7-2.8-3.6-4-5-7.8-4.3-10.5.3l19.6 23.3zM40 1.2V3l-1.6-2zm53.9 0H97v3L94 8zm-4 11.4V1.2h3.5v7.4l-3.5 4m-.6-10.4v10a41 41 0 00-3.5-3zM85.2 2v6.8a41.5 41.5 0 00-3.7-2.4zm-4.4-.2V6a32.8 32.8 0 00-3-1.5zm.6-.5H85l-3.7 4.5zm4.3 0h3.6l-3.6 7zm-8.8 0h3.8l-3.5 3h-.3v-3zm-.5.4V4a26 26 0 00-3.1-1zm-4.2 0V3a21.5 21.5 0 00-2.2-.3zm-6.8 0l2.2 1c-.7 0-1.5.1-2.2.3zm-4.1 0l3 1.5-3 .8zm3.6 1.2l-3.3-1.6h3.3zm3.5-.4l-2.7-1.2h2.7zm.7-1.2h2.8l-2.8 1.3zm3.7 0h3.3l-3.3 1.5zm-12.4 3l-3.5-3h3.9v3h-.4m-3.6-2.5l3 2.8a31.5 31.5 0 00-3 1.5zm-4.3.2L56 6.3a35.9 35.9 0 00-3.6 2.5zm-4.2.3l3.6 7a37.8 37.8 0 00-3.6 3.1zm3.7 6l-3.7-7H52zm4.3-2.5l-3.7-4.5h3.7zM43.7 7.5l-3.2-3.8V1.2h3.2zm.6-6.3h3.5v11.1l-3.5-4.2zM69 0H36v14.6l32.8 40 .3-.4L102 15V0z" fill="#491213"/><path d="M66.2 46l2.6-4.2 2.6 4.2-2.6 4.3z" fill="#23a9e1"/><path d="M74.2 30.6c-3.4-2-2.5-3.6.2-5 1.5-.7 4.8-3.3 6.2-2.5l-6.4 7.5M72 33c-2-.1-4.3-.4-6.3 0 1.2.3 4.2 1.2 1.4 2 1 1.3 2.6 1.2 3.7 0-.5-.2-.7-.5-1-.7 1-.2 2-.8 2.2-1.3m1.2-1.6c-1-.8-1.9-.8-2.7 0-1.2-2.1-5.4-1.4-7.4-1.7 1 2.6 9.6 3 10.1 1.7m-6.8-2.2c-1.5-.4-6.8-.3-3.3-1.7 1-.5 6.6 0 3.3 1.7m2-3c-.5-1 .3-2.3 1.7-1.4 1.2.8-.6 2-1.7 1.4m-2.9.1c-2.2.7-5.3-.8-1.6-1.5 2.3-.5 4.7.5 1.6 1.5.1 0 0 0 0 0m-2.6-6.2c-.6 1.6-1.6 1.9-1.5 0 .2-2.3 1.6-1.8 3.2-2.7 1.4-.7 2-3.4 4.3-1.8 1 .7 2.2.2 2.5 1.2 0 0-3 6.7-1.3 6.7-3.2 0-1.8-3.8-.5-6.4-1.2.6-3.2 4.3-1.6 5-.8 1-3.4 2.5-4.7 1.4-1-.8-.4-2.1-.4-3.4m-4 2.8c-5.6 0-1.8-8.7 0-8.1 2.3.7 2 8.2 0 8m-6.2-8c-2.6-.2-1.5-2.6.3-3.2 1.7-.5 5.2 1.1 6.4 2.2-1.8.6-4.2.5-6.2.6-.1-2-.6-1.3-.5.3" fill="#dc6243"/><path d="M71.8 25.8c-3-3 4.3-2.7 5.5-3.7.8.3 7-5.4 8.5-5-1.1 1.2-3.4 5.2-5 5.2-1.4 0-2.6-.2-3.6.7-1.5 1.4-3.9 2-5.4 2.8" fill="#f49774"/><path d="M72.7 22.2c-1.6.8-3-2.6-.3-2.2 1.8.2 3.7-.2 5.4.1a5.6 5.6 0 01-5 2" fill="#f4b1a4"/><path d="M51.1 21c.3.3.6.8.5 1.3 0 .4-.6 1-.1 1.2l1.4-1.8a22 22 0 01-3.5-4.2l-2 1c0 .5.8 0 1.1.1.6 0 1 .4 1.3.8-1.1 1-3.8 3.2-4.1 3.3-.2 0-.7-.4-.7 0l.6.7 1.5 1.7c.4-.1-.1-.4 0-.8l4-3.4m-3.4-4.5c.3 0 .4.3.6 0l-1.6-2c-.2-.2-.5-.5-.4 0 0 .5-4 3.8-4.3 3.9-.3 0-.4-.3-.7 0l1.5 1.7.4.6c.3.2.2-.4.2-.4 0-.3.3-.6.5-.8 1-.9 3.5-3 3.8-3m-5.7-.6c-1.2.3-2.4-.1-2.7-1.3-.4-1.2.4-2.5 1.3-3.1 1-.7 2.3-.7 2.8.5.3.5.2 1.1 0 1.6-.1.4-.4.7 0 .9l1.7-2.2c-.7-.4-1-1-1.5-1.6-.6-.7-1.3-1.4-2.3-1.5-1.8-.3-3.6 1.6-3.7 3.4-.1 1 .2 1.8.8 2.6.5.6 1.2 1 1.6 1.8L42 16l-.1-.2c-.5.2 0 0 0 0m25.5 23.6c-.7-.5-2.6-3-3-3.4l-.2-.3-.1.1v.6c-.6.8-3.8 3.2-4 3.4-.3.2-.7-.1-1 .2l2 2.3c.3 0 .1-.5.2-.7 0-.2 1.7-1.5 2.3-2 .2-.2.4.2.5.4.2.3.3.7.2 1 0 .3-.4.6-.1.8l1.7-2c.1-.2-.4 0-.3 0H65l-.7-.8 1-.7c.6-.2 1 1 1.1 1.4v1.1c-.1.3-.3.5 0 .6l1.4-1.9a.5.5 0 01-.3 0c0-.1.1 0 0 0m-9.2-9a3.4 3.4 0 00-2 .8 3.4 3.4 0 00-.5 4.8c1.3 1.7 3.4 1.9 5 .7a3.5 3.5 0 00.6-4.8c-.8-1-2-1.5-3.1-1.5zm1.2 1.4c1-.1 1.5.8 1 1.8-.3 1-1.4 2-2.4 2.4-1.1.4-2-.6-1.5-1.7.4-1 1.4-2 2.4-2.4h.5zm-2.8-4.6c.3 0 .6.3.8 0l-1.4-1.7c-.4.2 0 .4-.2.6-.1.3-1.6.5-2 .6l.7-1.8c.4-.3.6.2.9-.1l-1.8-2.1c-.2-.3-.4-.7-.7-.5v1.1c0 .2-.6 2.4-1.3 3-.3.2-1.4 1.2-1.7 1.3-.4.1-.6-.4-.8 0l1.6 1.9.5.6c.3 0 0-.6 0-.7.2-.3 1.7-1.8 2.3-1.9 1-.1 2.1-.4 3-.3.3 0-.1 0 0 0M81 34c.2.5.2 1 .2 1.4-.1.5-.7 1.9-1.4 1.5-.8-.4-1.5-1.1-2.1-1.7.5-.6 1-1.1 1.8-.8.3 0 .5 0 .2-.2l-2-1.2c-.3.2.3.6 0 1 0 .3-.3.5-.5.8-.5-.4-1.3-.8-.7-1.5.3-.4.8-.7 1.3-.8.4-.1 1.2.2 1.3-.2l-2-1c0 .5-2.3 3-2.8 3.5 0 .1-.4.4-.4.6 0 .2.4 0 .4 0 .3-.1 4.5 3.3 4.6 3.6 0 .1-.2.3 0 .4l.1.2c.3-.3 3-4 3.5-4a239.7 239.7 0 01-1.5-2.5c-.4.2 0 .7 0 1m-4 4.3c-1.3-.9-3.6.8-4 1-.6.3-1.1-.4-.8-1 .3-.5 1-.8 1.5-.8h1c0-.1.1-.1 0-.2L73 36.3c0 .6-.9 1-1.3 1.5-.5.6-1 1.3-1 2a2 2 0 001.1 1.8c.7.4 1.5 0 2.2-.3l1.2-.8c.7-.3 1.5 0 1.3.8-.2.7-.9 1.4-1.6 1.6l-1.2-.1c-.3 0-.6-.5-.8 0l2.3 1.6c0-.5.3-.7.7-1L77 42c.7-1.1 1-2.7-.2-3.6m17.6-28l-.8 1-.8 1c-.2.1-.4.2 0 .4.5-.3 3.4 4.8 3.2 5.5-.5.2-4.5-3.3-4.6-3.5 0-.1.2-.7-.2-.6l-.5.7-.6.7c.2.3.3 0 .6 0s1.2.9 1.5 1c-.5 0-1.8.2-2 .1-.5.1-.2-.4-.6-.6L88.2 18l-.8 1v.1c.2.2 0 .2.4 0 .3 0 4.2 3.3 4.4 3.4.2.3-.1.7.2.8l1.2-1.4v-.1c-.3-.3-.3.1-.6 0-.4 0-2.9-2.1-3.9-3l5.4-.1c.2 0 .7.6.7.8-.1.2-.3.3 0 .5l1-1.1v-.2a.5.5 0 00.2-.2l.1-.1c.3-.3 1.2-1.3 1-1.4-.2-.3-.4.3-.8 0l-.9-1.5c-.2-.3.4-.6.6-.7.5-.3 2.1-.8 2.3.2 0 .2-.2.4 0 .5 0 0 0 .1.1 0L101 13l-.3-.2c-.4.5-5.4-1.5-5.8-1.8-.1 0-.2-.6-.4-.6zm-.2 2.5l2.3 1-.6.2a3.7 3.7 0 00-.7.5l-1-1.7zm-6.6 7.7c-1 0-2.2.5-3 1.4a3.5 3.5 0 00.4 4.9c1.5 1.3 3.7 1 5-.5a3.5 3.5 0 00-.5-5 3.3 3.3 0 00-1.9-.8zm-1.4 1.6a4 4 0 011.7.7c.8.5 2.2 1.7 1.5 2.7v.1c-.9.9-2.2 0-3-.4-.7-.6-2-1.7-1.2-2.7.3-.3.6-.4 1-.4zm-3.1 4.3a4 4 0 00-3.3 1.6l-2 2.3c.3.3.5-.1.9 0 .2.2 4 3.4 4 3.6.2.3 0 .3.2.5 0 .1 3-3.4 3.2-4a2.8 2.8 0 00-.9-3.2 4 4 0 00-2.1-.8zM82 28h.3c1.4.4 3.4 2.1 2.1 3.6l-.4.4c-.2.2-4.2-3-4-3.2a3 3 0 012-.8z" fill="#fff"/></svg>